<svg width="145" height="90" viewBox="0 0 145 90" fill="none" xmlns="http://www.w3.org/2000/svg">
<path d="M11.1274 75.4584H6.63496V88.8236H4.56154V75.4584H0V73.3701H11.1274V75.4584Z" fill="white"/>
<path d="M26.747 81.0965C26.747 85.4819 23.6369 89.032 19.2827 89.032C14.9285 89.032 11.8184 85.4819 11.8184 81.0965C11.8184 76.711 14.9285 73.2305 19.2827 73.2305C23.6369 73.2305 26.747 76.711 26.747 81.0965ZM24.5354 81.0965C24.5354 77.8944 22.3928 75.3188 19.2136 75.3188C16.0343 75.3188 13.8918 77.8944 13.8918 81.0965C13.8918 84.2985 16.0343 86.8741 19.2136 86.8741C22.4619 86.8741 24.5354 84.2985 24.5354 81.0965Z" fill="white"/>
<path d="M39.672 73.3701V88.8932H37.5986V82.6283C36.4927 83.3244 34.6267 83.6725 33.5208 83.5332C30.9636 83.394 28.752 81.9322 28.752 77.8948V73.3701H30.8945V77.7556C30.8945 80.2615 31.793 81.5145 33.5899 81.6538C35.1105 81.793 36.7001 81.2361 37.6677 80.6096V73.3701H39.672Z" fill="white"/>
<path d="M46.5826 81.7227L44.6474 83.9502V88.8229H42.5049V73.2998H44.6474V80.6785L51.0059 73.2998H53.7705L48.034 79.9824L54.2543 88.7533H51.628L46.5826 81.7227Z" fill="white"/>
<path d="M64.484 84.5767H59.0239L57.5034 88.8229H55.2227L60.7518 73.2998H62.8252L68.3543 88.8229H66.0736L64.484 84.5767ZM63.7237 82.4884L61.7194 76.5019L59.7151 82.4884H63.7237Z" fill="white"/>
<path d="M87.0836 78.3118C87.0836 81.0962 85.1484 83.3237 82.0382 83.3237H78.3752V88.8229H76.3018V73.2998H82.0382C85.2175 73.3694 87.0836 75.5969 87.0836 78.3118ZM84.941 78.3118C84.941 76.7803 83.9734 75.4577 82.1074 75.4577H78.4443V81.2354H82.1074C83.9043 81.2354 84.941 79.8432 84.941 78.3118Z" fill="white"/>
<path d="M103.671 81.0965C103.671 85.4819 100.561 89.032 96.2065 89.032C91.8523 89.032 88.7422 85.4819 88.7422 81.0965C88.7422 76.711 91.8523 73.2305 96.2065 73.2305C100.561 73.2305 103.671 76.711 103.671 81.0965ZM101.528 81.0965C101.528 77.8944 99.3858 75.3188 96.2065 75.3188C93.0273 75.3188 90.8847 77.8944 90.8847 81.0965C90.8847 84.2985 93.0273 86.8741 96.2065 86.8741C99.3858 86.8741 101.528 84.2985 101.528 81.0965Z" fill="white"/>
<path d="M117.287 84.4378L119.222 85.4123C117.978 87.5702 115.628 89.032 112.864 89.032C108.51 89.032 105.399 85.4819 105.399 81.0965C105.399 76.711 108.51 73.2305 112.864 73.2305C115.628 73.2305 117.909 74.6923 119.222 76.8502L117.287 77.8248C116.389 76.2933 114.799 75.3188 112.864 75.3188C109.684 75.3188 107.542 77.8944 107.542 81.0965C107.542 84.2985 109.684 86.8741 112.864 86.8741C114.868 86.8741 116.389 85.8996 117.287 84.4378Z" fill="white"/>
<path d="M131.593 75.4584H127.031V88.8236H124.958V75.4584H120.396V73.3701H131.524V75.4584H131.593Z" fill="white"/>
<path d="M140.233 84.5767H134.773L133.252 88.8229H130.972L136.501 73.2998H138.574L144.103 88.8229H141.684L140.233 84.5767ZM139.473 82.4884L137.468 76.5019L135.464 82.4884H139.473Z" fill="white"/>
<path d="M79.2051 12.6689H69.46V31.3245H79.2051C82.3152 31.3245 84.8033 30.4892 86.6003 28.8186C88.3972 27.1479 89.2266 24.8508 89.2266 21.9967C89.2266 19.0731 88.3281 16.776 86.6003 15.1749C84.8033 13.5043 82.3843 12.6689 79.2051 12.6689Z" fill="white"/>
<path d="M42.4365 0V59.5169H101.598V0H42.4365ZM54.4624 49.9803C52.4581 49.9803 50.7993 48.3097 50.7993 46.1517C50.7993 44.133 52.4581 42.4624 54.4624 42.4624C56.6049 42.4624 58.2637 44.133 58.2637 46.1517C58.2637 48.3097 56.6049 49.9803 54.4624 49.9803ZM89.5724 31.2551C87.1534 33.6218 83.9741 34.8052 80.1038 34.8052H69.5293V48.3097C69.5293 49.3538 68.6999 50.2587 67.5941 50.2587C66.5574 50.2587 65.6589 49.4234 65.6589 48.3097V9.25819H80.1038C83.9741 9.25819 87.1534 10.4416 89.5724 12.8083C91.9914 15.1751 93.1663 18.2379 93.1663 22.0665C93.1663 25.8951 91.9914 28.8883 89.5724 31.2551Z" fill="white"/>
</svg>
