<svg width="503" height="89" viewBox="0 0 503 89" fill="none" xmlns="http://www.w3.org/2000/svg">
<path d="M147.913 44.9076H135.726V80.3538H130.187V44.9076H118V39.3691H147.728V44.9076H147.913Z" fill="#FF7039"/>
<path d="M189.642 59.8615C189.642 71.4923 181.333 80.9077 169.701 80.9077C158.068 80.9077 149.759 71.4923 149.759 59.8615C149.759 48.2308 158.068 39 169.701 39C181.333 39 189.642 48.4154 189.642 59.8615ZM183.918 59.8615C183.918 51.3692 178.194 44.5385 169.701 44.5385C161.207 44.5385 155.483 51.3692 155.483 59.8615C155.483 68.3538 161.207 75.1846 169.701 75.1846C178.194 75.3692 183.918 68.3538 183.918 59.8615Z" fill="#FF7039"/>
<path d="M224.171 39.3691V80.5384H218.632V63.923C215.677 65.7691 210.692 66.6922 207.738 66.323C200.906 65.9538 194.997 62.0768 194.997 51.3691V39.3691H200.721V50.9999C200.721 57.6461 203.121 60.9691 207.922 61.3384C211.984 61.7076 216.231 60.2307 218.816 58.5691V39.3691H224.171Z" fill="#FF7039"/>
<path d="M242.636 61.523L237.466 67.4307V80.3538H231.742V39.3691H237.466V58.9384L254.454 39.3691H261.839L246.514 57.0922L263.132 80.3538H256.115L242.636 61.523Z" fill="#FF7039"/>
<path d="M290.459 69.0923H275.872L271.81 80.3538H265.717L280.488 39.1846H286.028L300.799 80.3538H294.706L290.459 69.0923ZM288.428 63.7384L283.073 47.8615L277.719 63.7384H288.428Z" fill="#FF7039"/>
<path d="M350.838 52.4768C350.838 59.8614 345.668 65.7691 337.359 65.7691H327.573V80.3538H322.033V39.3691H337.359C345.853 39.3691 350.838 45.2768 350.838 52.4768ZM345.114 52.4768C345.114 48.4153 342.529 44.9076 337.543 44.9076H327.573V60.2307H337.359C342.344 60.2307 345.114 56.5384 345.114 52.4768Z" fill="#FF7039"/>
<path d="M395.153 59.8615C395.153 71.4923 386.844 80.9077 375.211 80.9077C363.579 80.9077 355.27 71.4923 355.27 59.8615C355.27 48.2308 363.579 39 375.211 39C386.844 39 395.153 48.4154 395.153 59.8615ZM389.429 59.8615C389.429 51.3692 383.705 44.5385 375.211 44.5385C366.718 44.5385 360.994 51.3692 360.994 59.8615C360.994 68.3538 366.718 75.1846 375.211 75.1846C383.705 75.3692 389.429 68.3538 389.429 59.8615Z" fill="#FF7039"/>
<path d="M431.529 68.7231L436.699 71.3077C433.375 77.0308 427.097 80.9077 419.711 80.9077C408.079 80.9077 399.77 71.4923 399.77 59.8615C399.77 48.2308 408.079 39 419.711 39C427.097 39 433.19 42.8769 436.699 48.6L431.529 51.1846C429.128 47.1231 424.881 44.5385 419.711 44.5385C411.218 44.5385 405.494 51.3692 405.494 59.8615C405.494 68.3538 411.218 75.1846 419.711 75.1846C425.066 75.1846 429.128 72.6 431.529 68.7231Z" fill="#FF7039"/>
<path d="M469.75 44.9076H457.564V80.3538H452.024V44.9076H439.838V39.3691H469.75V44.9076Z" fill="#FF7039"/>
<path d="M492.831 69.0923H478.243L474.181 80.3538H467.903L482.675 39.1846H488.214L502.986 80.3538H496.893L492.831 69.0923ZM490.799 63.7384L485.445 47.8615L480.09 63.7384H490.799Z" fill="#FF7039"/>
<path d="M89.0146 0H0V89H89.0146V0Z" fill="#FF7039"/>
<path d="M23.8282 69.0091C23.8282 72.2953 21.3631 74.7599 18.0765 74.7599C15.0637 74.7599 12.5986 72.2953 12.5986 69.0091C12.5986 65.9968 15.0637 63.5322 18.0765 63.5322C21.3631 63.5322 23.8282 65.9968 23.8282 69.0091Z" fill="white"/>
<path d="M56.695 13.6924C62.4467 13.6924 67.3768 15.3355 70.9373 18.8955C74.4979 22.4555 76.4152 27.1108 76.4152 32.5878C76.4152 38.0647 74.4979 42.9939 70.9373 46.2801C67.3768 49.8401 62.4467 51.4832 56.695 51.4832H40.8093V71.7478C40.8093 73.3908 39.4399 74.4862 38.0704 74.4862H37.7965C36.1532 74.4862 35.0576 73.117 35.0576 71.7478V13.6924H56.695ZM40.8093 46.8278H55.3256C59.9817 46.8278 63.8162 45.4585 66.5551 42.9939C69.294 40.5293 70.6635 37.2432 70.6635 32.8616C70.6635 28.4801 69.294 25.1939 66.5551 22.7293C63.8162 20.2647 60.2556 18.8955 55.3256 18.8955H40.8093V46.8278Z" fill="white"/>
<defs>
<linearGradient id="paint0_linear_3892:9400" x1="0" y1="0" x2="88.9474" y2="88.962" gradientUnits="userSpaceOnUse">
<stop stop-color="#FF5642"/>
<stop offset="1" stop-color="#FF7039"/>
</linearGradient>
</defs>
</svg>
