<svg width="18" height="18" viewBox="0 0 18 18" fill="none" xmlns="http://www.w3.org/2000/svg">
<path d="M9.17204 17.3544C13.6853 17.3544 17.3441 13.6934 17.3441 9.17721C17.3441 4.66106 13.6853 1 9.17204 1C4.65875 1 1 4.66106 1 9.17721C1 13.6934 4.65875 17.3544 9.17204 17.3544Z" stroke="white" stroke-miterlimit="10" stroke-linecap="round" stroke-linejoin="round"/>
<path d="M9.17238 17.3544C11.6666 17.3544 13.6885 13.6934 13.6885 9.17721C13.6885 4.66106 11.6666 1 9.17238 1C6.67819 1 4.65625 4.66106 4.65625 9.17721C4.65625 13.6934 6.67819 17.3544 9.17238 17.3544Z" stroke="white" stroke-miterlimit="10" stroke-linecap="round" stroke-linejoin="round"/>
<path d="M16.0965 13.5243C14.6557 12.8572 12.0965 12.4053 9.18254 12.4053C6.25781 12.4053 3.69867 12.8572 2.25781 13.535" stroke="white" stroke-miterlimit="10" stroke-linecap="round" stroke-linejoin="round"/>
<path d="M2.21484 4.89453C3.64495 5.52934 6.23635 5.94896 9.18259 5.94896C12.1288 5.94896 14.6987 5.52934 16.1396 4.89453" stroke="white" stroke-miterlimit="10" stroke-linecap="round" stroke-linejoin="round"/>
<path d="M9.18262 1V17.3544" stroke="white" stroke-miterlimit="10" stroke-linecap="round" stroke-linejoin="round"/>
<path d="M1.01074 9.17773H17.3548" stroke="white" stroke-miterlimit="10" stroke-linecap="round" stroke-linejoin="round"/>
</svg>
