<svg width="62" height="66" viewBox="0 0 62 66" fill="none" xmlns="http://www.w3.org/2000/svg">
<g clip-path="url(#clip0_3892:9505)">
<path d="M26.041 43.7468V22.6133H35.1152C38.4917 22.6133 41.1928 25.3606 41.1928 28.6997C41.1928 32.0811 38.4495 34.7862 35.1152 34.7862H26.041" stroke="#1A1A1A" stroke-width="2" stroke-miterlimit="10" stroke-linecap="round" stroke-linejoin="round"/>
<path d="M23.6777 39.5615H33.2162" stroke="#1A1A1A" stroke-width="2" stroke-miterlimit="10" stroke-linecap="round" stroke-linejoin="round"/>
<path d="M58.8764 47.9727C53.5163 57.9054 43.0493 64.6681 30.9785 64.6681C18.9499 64.6681 8.52515 57.9477 3.16504 48.0572" stroke="#FF5641" stroke-width="2" stroke-miterlimit="10" stroke-linecap="round" stroke-linejoin="round"/>
<path d="M2.87012 18.3857C8.14581 8.19936 18.7816 1.26758 30.979 1.26758C43.2187 1.26758 53.8123 8.19936 59.0879 18.3857" stroke="#FF5641" stroke-width="2" stroke-miterlimit="10" stroke-linecap="round" stroke-linejoin="round"/>
<path d="M1.2666 10.2705L2.49056 18.5126L10.7629 17.2868" stroke="#FF5641" stroke-width="2" stroke-miterlimit="10" stroke-linecap="round" stroke-linejoin="round"/>
<path d="M60.7336 55.6659L59.4674 47.4238L51.2373 48.6496" stroke="#FF5641" stroke-width="2" stroke-miterlimit="10" stroke-linecap="round" stroke-linejoin="round"/>
</g>
<defs>
<clipPath id="clip0_3892:9505">
<rect width="62" height="65.9365" fill="white"/>
</clipPath>
</defs>
</svg>
