<svg width="66" height="66" viewBox="0 0 66 66" fill="none" xmlns="http://www.w3.org/2000/svg">
<path d="M38.5849 5.28876L42.2234 1.26953L48.9503 4.06184L48.6542 9.47722C48.4426 13.9195 52.0811 17.6003 56.5234 17.3465L61.9388 17.0503L64.7311 23.7772L60.7118 27.4157C57.4118 30.3772 57.4118 35.5811 60.7118 38.5426L64.7311 42.1811L61.9388 48.908L56.5234 48.6118C52.0811 48.4003 48.4003 52.0388 48.6542 56.4811L48.9503 61.8965L42.2234 64.7311L38.5849 60.7118C35.6234 57.4118 30.4195 57.4118 27.458 60.7118L23.8195 64.7311L17.0926 61.9388L17.3888 56.5234C17.6003 52.0811 13.9618 48.4003 9.51953 48.6542L4.10415 48.9503L1.26953 42.2234L5.28876 38.5849C8.58876 35.6234 8.58876 30.4195 5.28876 27.458L1.26953 23.7772L4.06184 17.0503L9.47722 17.3465C13.9195 17.558 17.6003 13.9195 17.3465 9.47722L17.0926 4.06184L23.7772 1.26953L27.4157 5.28876C30.4195 8.58876 35.5811 8.58876 38.5849 5.28876Z" stroke="#FF5641" stroke-width="2" stroke-miterlimit="10" stroke-linecap="round" stroke-linejoin="round"/>
<path d="M32.9998 44.6345C39.4255 44.6345 44.6345 39.4255 44.6345 32.9998C44.6345 26.5742 39.4255 21.3652 32.9998 21.3652C26.5742 21.3652 21.3652 26.5742 21.3652 32.9998C21.3652 39.4255 26.5742 44.6345 32.9998 44.6345Z" stroke="#1A1A1A" stroke-width="2" stroke-miterlimit="10" stroke-linecap="round" stroke-linejoin="round"/>
</svg>
