<svg width="66" height="55" viewBox="0 0 66 55" fill="none" xmlns="http://www.w3.org/2000/svg">
<path d="M35.5693 30.0723C41.4184 34.5039 49.4807 34.5039 55.3298 30.0723C60.5861 30.0723 64.8148 34.3061 64.8148 39.5687V47.878H40.7071" stroke="#1A1A1A" stroke-width="2" stroke-miterlimit="10" stroke-linecap="round" stroke-linejoin="round"/>
<path d="M35.5693 12.0688C35.5693 5.1839 39.9957 1.1875 45.4496 1.1875C50.9035 1.1875 55.3298 5.1839 55.3298 12.0688C55.3298 18.9537 50.9035 26.1156 45.4496 26.1156C39.9957 26.1156 35.5693 18.9537 35.5693 12.0688Z" stroke="#1A1A1A" stroke-width="2" stroke-miterlimit="10" stroke-linecap="round" stroke-linejoin="round"/>
<path d="M39.9161 53.8126H1.18555V45.5032C1.18555 40.2406 5.41429 36.0068 10.6706 36.0068C16.5197 40.4385 24.582 40.4385 30.4311 36.0068C35.6873 36.0068 39.9161 40.2406 39.9161 45.5032V53.8126Z" stroke="#FF5641" stroke-width="2" stroke-miterlimit="10" stroke-linecap="round" stroke-linejoin="round"/>
<path d="M30.4314 18.0034C30.4314 24.8883 26.005 32.0501 20.5511 32.0501C15.0972 32.0501 10.6709 24.8883 10.6709 18.0034C10.6709 11.1185 15.0972 7.12207 20.5511 7.12207C26.005 7.12207 30.4314 11.1185 30.4314 18.0034Z" stroke="#FF5641" stroke-width="2" stroke-miterlimit="10" stroke-linecap="round" stroke-linejoin="round"/>
<path d="M10.6706 36.0068C16.5197 40.4385 24.582 40.4385 30.4311 36.0068C35.6873 36.0068 39.9161 40.2406 39.9161 45.5032V53.8126H1.18555" stroke="#FF5641" stroke-width="2" stroke-miterlimit="10" stroke-linecap="round" stroke-linejoin="round"/>
<path d="M10.6709 18.0034C10.6709 11.1185 15.0972 7.12207 20.5511 7.12207C26.005 7.12207 30.4314 11.1185 30.4314 18.0034C30.4314 24.8883 26.005 32.0501 20.5511 32.0501C15.0972 32.0501 10.6709 24.8883 10.6709 18.0034Z" stroke="#FF5641" stroke-width="2" stroke-miterlimit="10" stroke-linecap="round" stroke-linejoin="round"/>
</svg>
