<svg width="61" height="62" viewBox="0 0 61 62" fill="none" xmlns="http://www.w3.org/2000/svg">
<path d="M15.2625 23.3008C15.2625 23.3008 28.7188 16.6892 27.2625 5.76685C25.8062 -5.15548 44.447 6.11637 36.146 22.1067H55.3693C57.9033 22.1067 59.9422 24.1455 59.9422 26.6795V27.1455C59.9422 29.6795 57.9033 31.7183 55.3693 31.7183H50.7965H54.2917C56.8257 31.7183 58.8645 33.7571 58.8645 36.2911V37.0193C58.8645 39.5533 56.8257 41.5921 54.2917 41.5921H48.7577H51.7577C54.2917 41.5921 56.3305 43.6309 56.3305 46.1649V46.3979C56.3305 48.9319 54.2917 50.9707 51.7577 50.9707H46.9519H48.146C50.68 50.9707 52.7189 53.0096 52.7189 55.5435C52.7189 58.0775 50.68 60.1164 48.146 60.1164H40.3693C34.981 60.1164 29.6509 59.4756 24.4082 58.2232L15.2334 56.0096V23.3008H15.2625Z" stroke="#1A1A1A" stroke-width="2" stroke-miterlimit="10" stroke-linecap="round" stroke-linejoin="round"/>
<path d="M15.2623 60.7859H3.90305C2.67974 60.7859 1.68945 59.7956 1.68945 58.5723V23.1257C1.68945 21.9024 2.67974 20.9121 3.90305 20.9121H13.0487C14.272 20.9121 15.2623 21.9024 15.2623 23.1257V60.7859Z" stroke="#1A1A1A" stroke-width="2" stroke-miterlimit="10" stroke-linecap="round" stroke-linejoin="round"/>
</svg>
