<svg width="61" height="63" viewBox="0 0 61 63" fill="none" xmlns="http://www.w3.org/2000/svg">
<path d="M45.6023 48.2127V58.8729C45.6023 60.6496 43.9712 61.9894 42.2237 61.6399L3.66056 52.6981C2.43726 52.4069 1.56348 51.3292 1.56348 50.0477V17.5137" stroke="#1A1A1A" stroke-width="2" stroke-miterlimit="10" stroke-linecap="round" stroke-linejoin="round"/>
<path d="M34.9133 9.12576C34.9133 7.23255 33.0783 5.86362 31.2725 6.44615L2.72879 15.9995C1.09773 16.4947 1.21423 18.0966 2.87442 18.417L41.2628 26.3394C43.7967 26.8636 45.6026 29.0772 45.6026 31.6695V40.786" stroke="#1A1A1A" stroke-width="2" stroke-miterlimit="10" stroke-linecap="round" stroke-linejoin="round"/>
<path d="M17.4082 21.4462L45.4276 1.75684L59.7869 22.1743L54.0199 26.252" stroke="#1A1A1A" stroke-width="2" stroke-miterlimit="10" stroke-linecap="round" stroke-linejoin="round"/>
<path d="M26.3496 23.2809L49.2719 14.2227L58.4467 37.4363L47.4952 41.7761" stroke="#1A1A1A" stroke-width="2" stroke-miterlimit="10" stroke-linecap="round" stroke-linejoin="round"/>
<path d="M47.4951 48.5917L37.1553 46.4655V39.0674L47.4951 41.1936V48.5917Z" stroke="#1A1A1A" stroke-width="2" stroke-miterlimit="10" stroke-linecap="round" stroke-linejoin="round"/>
</svg>
