<svg width="62" height="55" viewBox="0 0 62 55" fill="none" xmlns="http://www.w3.org/2000/svg">
<path d="M31 1.94141V10.3589" stroke="#1A1A1A" stroke-width="2" stroke-miterlimit="10" stroke-linecap="round" stroke-linejoin="round"/>
<path d="M2.68945 24.1064L11.1069 25.7375" stroke="#1A1A1A" stroke-width="2" stroke-miterlimit="10" stroke-linecap="round" stroke-linejoin="round"/>
<path d="M50.8936 25.7375L59.311 24.1064" stroke="#1A1A1A" stroke-width="2" stroke-miterlimit="10" stroke-linecap="round" stroke-linejoin="round"/>
<path d="M12.7383 8.40723L14.8062 10.883" stroke="#1A1A1A" stroke-width="2" stroke-miterlimit="10" stroke-linecap="round" stroke-linejoin="round"/>
<path d="M49.3787 8.49512L47.3398 10.9417" stroke="#1A1A1A" stroke-width="2" stroke-miterlimit="10" stroke-linecap="round" stroke-linejoin="round"/>
<path d="M6.79618 40.4173L3.91269 41.6406H3.82531C2.54375 38.3785 1.84473 34.7959 1.84473 31.0969C1.84473 15.0192 14.8933 1.9707 30.9709 1.9707C47.0486 1.9707 60.0972 15.0192 60.0972 31.0969C60.0972 34.7959 59.3981 38.3202 58.1748 41.5532L58.0583 41.6406L55.1748 40.4173" stroke="#1A1A1A" stroke-width="2" stroke-miterlimit="10" stroke-linecap="round" stroke-linejoin="round"/>
<path d="M48.7091 17.4075L32.0197 30.7764C30.9712 31.6211 29.4566 31.3881 28.6994 30.3104C27.9421 29.2036 28.2625 27.7182 29.3984 27.0191L47.7188 15.9803C48.1265 15.7473 48.6217 15.8638 48.8838 16.2424C49.1459 16.6211 49.0877 17.1454 48.7091 17.4075Z" stroke="#1A1A1A" stroke-width="2" stroke-miterlimit="10" stroke-linecap="round" stroke-linejoin="round"/>
<path d="M40.0287 47.291H19.9316V53.4366H40.0287V47.291Z" stroke="#1A1A1A" stroke-width="2" stroke-miterlimit="10" stroke-linecap="round" stroke-linejoin="round"/>
</svg>
